<mxfile host="app.diagrams.net" modified="2023-11-21T05:33:38.120Z" agent="Mozilla/5.0 (Windows NT 10.0; Win64; x64) AppleWebKit/537.36 (KHTML, like Gecko) Chrome/116.0.0.0 Safari/537.36 OPR/102.0.0.0" etag="SSiMZXtYw846WUZ2xdU1" version="22.1.3" type="google">
  <diagram id="R2lEEEUBdFMjLlhIrx00" name="Page-1">
    <mxGraphModel grid="1" page="1" gridSize="10" guides="1" tooltips="1" connect="1" arrows="1" fold="1" pageScale="1" pageWidth="850" pageHeight="1100" math="0" shadow="0" extFonts="Permanent Marker^https://fonts.googleapis.com/css?family=Permanent+Marker">
      <root>
        <mxCell id="0" />
        <mxCell id="1" parent="0" />
        <mxCell id="EBscJ2AW3vFYVEZbXSV--1" value="Account" style="rounded=1;arcSize=10;whiteSpace=wrap;html=1;align=center;" vertex="1" parent="1">
          <mxGeometry x="10" y="-80" width="100" height="40" as="geometry" />
        </mxCell>
        <mxCell id="EBscJ2AW3vFYVEZbXSV--3" value="Product" style="rounded=1;arcSize=10;whiteSpace=wrap;html=1;align=center;" vertex="1" parent="1">
          <mxGeometry x="40" y="620" width="100" height="40" as="geometry" />
        </mxCell>
        <mxCell id="EBscJ2AW3vFYVEZbXSV--4" value="Supplier" style="rounded=1;arcSize=10;whiteSpace=wrap;html=1;align=center;" vertex="1" parent="1">
          <mxGeometry x="40" y="240" width="100" height="40" as="geometry" />
        </mxCell>
        <mxCell id="EBscJ2AW3vFYVEZbXSV--5" value="Warehouse" style="rounded=1;arcSize=10;whiteSpace=wrap;html=1;align=center;" vertex="1" parent="1">
          <mxGeometry x="-480" y="620" width="100" height="40" as="geometry" />
        </mxCell>
        <mxCell id="EBscJ2AW3vFYVEZbXSV--6" value="Order" style="rounded=1;arcSize=10;whiteSpace=wrap;html=1;align=center;" vertex="1" parent="1">
          <mxGeometry x="460" y="620" width="100" height="40" as="geometry" />
        </mxCell>
        <mxCell id="KvOZbwkdPJS79Aq6iWJq-5" value="Supplies" style="shape=rhombus;perimeter=rhombusPerimeter;whiteSpace=wrap;html=1;align=center;" vertex="1" parent="1">
          <mxGeometry x="30" y="413" width="120" height="60" as="geometry" />
        </mxCell>
        <mxCell id="KvOZbwkdPJS79Aq6iWJq-7" value="" style="endArrow=none;html=1;rounded=0;" edge="1" parent="1" source="KvOZbwkdPJS79Aq6iWJq-5" target="EBscJ2AW3vFYVEZbXSV--4">
          <mxGeometry width="50" height="50" relative="1" as="geometry">
            <mxPoint x="-370" y="270" as="sourcePoint" />
            <mxPoint x="40" y="260" as="targetPoint" />
          </mxGeometry>
        </mxCell>
        <mxCell id="KvOZbwkdPJS79Aq6iWJq-8" value="stores" style="shape=rhombus;perimeter=rhombusPerimeter;whiteSpace=wrap;html=1;align=center;" vertex="1" parent="1">
          <mxGeometry x="-230" y="610" width="120" height="60" as="geometry" />
        </mxCell>
        <mxCell id="KvOZbwkdPJS79Aq6iWJq-10" value="" style="endArrow=none;html=1;rounded=0;" edge="1" parent="1" source="KvOZbwkdPJS79Aq6iWJq-8" target="EBscJ2AW3vFYVEZbXSV--5">
          <mxGeometry width="50" height="50" relative="1" as="geometry">
            <mxPoint x="-536" y="440" as="sourcePoint" />
            <mxPoint x="-600" y="760" as="targetPoint" />
          </mxGeometry>
        </mxCell>
        <mxCell id="KvOZbwkdPJS79Aq6iWJq-11" value="Employee" style="rounded=1;arcSize=10;whiteSpace=wrap;html=1;align=center;" vertex="1" parent="1">
          <mxGeometry x="-265" y="240" width="100" height="40" as="geometry" />
        </mxCell>
        <mxCell id="KvOZbwkdPJS79Aq6iWJq-19" value="Customer" style="rounded=1;arcSize=10;whiteSpace=wrap;html=1;align=center;" vertex="1" parent="1">
          <mxGeometry x="460" y="240" width="100" height="40" as="geometry" />
        </mxCell>
        <mxCell id="KvOZbwkdPJS79Aq6iWJq-20" value="Makes" style="shape=rhombus;perimeter=rhombusPerimeter;whiteSpace=wrap;html=1;align=center;" vertex="1" parent="1">
          <mxGeometry x="450" y="413" width="120" height="60" as="geometry" />
        </mxCell>
        <mxCell id="KvOZbwkdPJS79Aq6iWJq-22" value="" style="endArrow=none;html=1;rounded=0;" edge="1" parent="1" source="KvOZbwkdPJS79Aq6iWJq-20" target="KvOZbwkdPJS79Aq6iWJq-19">
          <mxGeometry width="50" height="50" relative="1" as="geometry">
            <mxPoint x="50" y="270" as="sourcePoint" />
            <mxPoint x="510" y="280" as="targetPoint" />
          </mxGeometry>
        </mxCell>
        <mxCell id="KvOZbwkdPJS79Aq6iWJq-23" value="Includes" style="shape=rhombus;perimeter=rhombusPerimeter;whiteSpace=wrap;html=1;align=center;" vertex="1" parent="1">
          <mxGeometry x="230" y="770" width="120" height="60" as="geometry" />
        </mxCell>
        <mxCell id="KvOZbwkdPJS79Aq6iWJq-24" value="" style="endArrow=none;html=1;rounded=0;" edge="1" parent="1" source="EBscJ2AW3vFYVEZbXSV--3" target="KvOZbwkdPJS79Aq6iWJq-23">
          <mxGeometry width="50" height="50" relative="1" as="geometry">
            <mxPoint x="150" y="640" as="sourcePoint" />
            <mxPoint x="90" y="767" as="targetPoint" />
          </mxGeometry>
        </mxCell>
        <mxCell id="KvOZbwkdPJS79Aq6iWJq-31" value="Adds" style="shape=rhombus;perimeter=rhombusPerimeter;whiteSpace=wrap;html=1;align=center;" vertex="1" parent="1">
          <mxGeometry x="-490" y="413" width="120" height="60" as="geometry" />
        </mxCell>
        <mxCell id="KvOZbwkdPJS79Aq6iWJq-33" value="" style="endArrow=none;html=1;rounded=0;" edge="1" parent="1" source="KvOZbwkdPJS79Aq6iWJq-31" target="VNYMSGWV-zVmcTVDoXyZ-1">
          <mxGeometry width="50" height="50" relative="1" as="geometry">
            <mxPoint x="-875" y="270" as="sourcePoint" />
            <mxPoint x="-430" y="290" as="targetPoint" />
          </mxGeometry>
        </mxCell>
        <mxCell id="KvOZbwkdPJS79Aq6iWJq-39" value="d" style="ellipse;whiteSpace=wrap;html=1;aspect=fixed;" vertex="1" parent="1">
          <mxGeometry x="45" y="50" width="30" height="30" as="geometry" />
        </mxCell>
        <mxCell id="KvOZbwkdPJS79Aq6iWJq-42" value="" style="endArrow=none;html=1;rounded=0;" edge="1" parent="1" source="KvOZbwkdPJS79Aq6iWJq-11" target="KvOZbwkdPJS79Aq6iWJq-39">
          <mxGeometry width="50" height="50" relative="1" as="geometry">
            <mxPoint x="-370" y="250" as="sourcePoint" />
            <mxPoint x="56" y="81" as="targetPoint" />
          </mxGeometry>
        </mxCell>
        <mxCell id="KvOZbwkdPJS79Aq6iWJq-43" value="" style="endArrow=none;html=1;rounded=0;" edge="1" parent="1" source="EBscJ2AW3vFYVEZbXSV--4" target="KvOZbwkdPJS79Aq6iWJq-39">
          <mxGeometry width="50" height="50" relative="1" as="geometry">
            <mxPoint x="-360" y="260" as="sourcePoint" />
            <mxPoint x="66" y="91" as="targetPoint" />
          </mxGeometry>
        </mxCell>
        <mxCell id="KvOZbwkdPJS79Aq6iWJq-44" value="" style="endArrow=none;html=1;rounded=0;" edge="1" parent="1" source="KvOZbwkdPJS79Aq6iWJq-19" target="KvOZbwkdPJS79Aq6iWJq-39">
          <mxGeometry width="50" height="50" relative="1" as="geometry">
            <mxPoint x="-350" y="270" as="sourcePoint" />
            <mxPoint x="76" y="101" as="targetPoint" />
          </mxGeometry>
        </mxCell>
        <mxCell id="KvOZbwkdPJS79Aq6iWJq-46" value="" style="shape=link;html=1;rounded=0;" edge="1" parent="1" source="KvOZbwkdPJS79Aq6iWJq-39" target="EBscJ2AW3vFYVEZbXSV--1">
          <mxGeometry relative="1" as="geometry">
            <mxPoint x="-60" y="330" as="sourcePoint" />
            <mxPoint x="100" y="330" as="targetPoint" />
          </mxGeometry>
        </mxCell>
        <mxCell id="KvOZbwkdPJS79Aq6iWJq-48" value="" style="shape=link;html=1;rounded=0;" edge="1" parent="1" source="EBscJ2AW3vFYVEZbXSV--6" target="KvOZbwkdPJS79Aq6iWJq-20">
          <mxGeometry relative="1" as="geometry">
            <mxPoint x="660" y="580" as="sourcePoint" />
            <mxPoint x="660" y="490" as="targetPoint" />
          </mxGeometry>
        </mxCell>
        <mxCell id="KvOZbwkdPJS79Aq6iWJq-49" value="" style="shape=link;html=1;rounded=0;" edge="1" parent="1" source="KvOZbwkdPJS79Aq6iWJq-109" target="KvOZbwkdPJS79Aq6iWJq-108">
          <mxGeometry relative="1" as="geometry">
            <mxPoint x="510" y="840" as="sourcePoint" />
            <mxPoint x="510" y="960" as="targetPoint" />
          </mxGeometry>
        </mxCell>
        <mxCell id="KvOZbwkdPJS79Aq6iWJq-50" value="" style="shape=link;html=1;rounded=0;" edge="1" parent="1" source="EBscJ2AW3vFYVEZbXSV--6" target="KvOZbwkdPJS79Aq6iWJq-109">
          <mxGeometry relative="1" as="geometry">
            <mxPoint x="360" y="480" as="sourcePoint" />
            <mxPoint x="510" y="780" as="targetPoint" />
          </mxGeometry>
        </mxCell>
        <mxCell id="KvOZbwkdPJS79Aq6iWJq-51" value="" style="shape=link;html=1;rounded=0;" edge="1" parent="1" source="KvOZbwkdPJS79Aq6iWJq-108" target="KvOZbwkdPJS79Aq6iWJq-23">
          <mxGeometry relative="1" as="geometry">
            <mxPoint x="485.55555555555566" y="960" as="sourcePoint" />
            <mxPoint x="270" y="600" as="targetPoint" />
          </mxGeometry>
        </mxCell>
        <mxCell id="KvOZbwkdPJS79Aq6iWJq-52" value="" style="shape=link;html=1;rounded=0;" edge="1" parent="1" source="KvOZbwkdPJS79Aq6iWJq-5" target="EBscJ2AW3vFYVEZbXSV--3">
          <mxGeometry relative="1" as="geometry">
            <mxPoint x="380" y="500" as="sourcePoint" />
            <mxPoint x="534" y="990" as="targetPoint" />
          </mxGeometry>
        </mxCell>
        <mxCell id="KvOZbwkdPJS79Aq6iWJq-53" value="" style="shape=link;html=1;rounded=0;" edge="1" parent="1" source="EBscJ2AW3vFYVEZbXSV--3" target="KvOZbwkdPJS79Aq6iWJq-8">
          <mxGeometry relative="1" as="geometry">
            <mxPoint x="390" y="510" as="sourcePoint" />
            <mxPoint x="544" y="1000" as="targetPoint" />
          </mxGeometry>
        </mxCell>
        <mxCell id="KvOZbwkdPJS79Aq6iWJq-54" value="" style="shape=link;html=1;rounded=0;" edge="1" parent="1" source="KvOZbwkdPJS79Aq6iWJq-31" target="EBscJ2AW3vFYVEZbXSV--5">
          <mxGeometry relative="1" as="geometry">
            <mxPoint x="400" y="520" as="sourcePoint" />
            <mxPoint x="554" y="1010" as="targetPoint" />
          </mxGeometry>
        </mxCell>
        <mxCell id="KvOZbwkdPJS79Aq6iWJq-55" value="1" style="text;html=1;align=center;verticalAlign=middle;resizable=0;points=[];autosize=1;strokeColor=none;fillColor=none;rotation=0;" vertex="1" parent="1">
          <mxGeometry x="-434" y="388" width="30" height="30" as="geometry" />
        </mxCell>
        <mxCell id="KvOZbwkdPJS79Aq6iWJq-56" value="N" style="text;html=1;align=center;verticalAlign=middle;resizable=0;points=[];autosize=1;strokeColor=none;fillColor=none;" vertex="1" parent="1">
          <mxGeometry x="-434" y="470" width="30" height="30" as="geometry" />
        </mxCell>
        <mxCell id="KvOZbwkdPJS79Aq6iWJq-57" value="M" style="text;html=1;align=center;verticalAlign=middle;resizable=0;points=[];autosize=1;strokeColor=none;fillColor=none;" vertex="1" parent="1">
          <mxGeometry x="-120" y="610" width="30" height="30" as="geometry" />
        </mxCell>
        <mxCell id="KvOZbwkdPJS79Aq6iWJq-58" value="N" style="text;html=1;align=center;verticalAlign=middle;resizable=0;points=[];autosize=1;strokeColor=none;fillColor=none;" vertex="1" parent="1">
          <mxGeometry x="-250" y="610" width="30" height="30" as="geometry" />
        </mxCell>
        <mxCell id="KvOZbwkdPJS79Aq6iWJq-61" value="N" style="text;html=1;align=center;verticalAlign=middle;resizable=0;points=[];autosize=1;strokeColor=none;fillColor=none;" vertex="1" parent="1">
          <mxGeometry x="90" y="388" width="30" height="30" as="geometry" />
        </mxCell>
        <mxCell id="KvOZbwkdPJS79Aq6iWJq-62" value="M" style="text;html=1;align=center;verticalAlign=middle;resizable=0;points=[];autosize=1;strokeColor=none;fillColor=none;" vertex="1" parent="1">
          <mxGeometry x="90" y="470" width="30" height="30" as="geometry" />
        </mxCell>
        <mxCell id="KvOZbwkdPJS79Aq6iWJq-63" value="1" style="text;html=1;align=center;verticalAlign=middle;resizable=0;points=[];autosize=1;strokeColor=none;fillColor=none;" vertex="1" parent="1">
          <mxGeometry x="250" y="750" width="30" height="30" as="geometry" />
        </mxCell>
        <mxCell id="KvOZbwkdPJS79Aq6iWJq-64" value="N" style="text;html=1;align=center;verticalAlign=middle;resizable=0;points=[];autosize=1;strokeColor=none;fillColor=none;" vertex="1" parent="1">
          <mxGeometry x="330" y="810" width="30" height="30" as="geometry" />
        </mxCell>
        <mxCell id="KvOZbwkdPJS79Aq6iWJq-65" value="1" style="text;html=1;align=center;verticalAlign=middle;resizable=0;points=[];autosize=1;strokeColor=none;fillColor=none;" vertex="1" parent="1">
          <mxGeometry x="510" y="760" width="30" height="30" as="geometry" />
        </mxCell>
        <mxCell id="KvOZbwkdPJS79Aq6iWJq-66" value="N" style="text;html=1;align=center;verticalAlign=middle;resizable=0;points=[];autosize=1;strokeColor=none;fillColor=none;" vertex="1" parent="1">
          <mxGeometry x="510" y="830" width="30" height="30" as="geometry" />
        </mxCell>
        <mxCell id="KvOZbwkdPJS79Aq6iWJq-67" value="1" style="text;html=1;align=center;verticalAlign=middle;resizable=0;points=[];autosize=1;strokeColor=none;fillColor=none;" vertex="1" parent="1">
          <mxGeometry x="510" y="388" width="30" height="30" as="geometry" />
        </mxCell>
        <mxCell id="KvOZbwkdPJS79Aq6iWJq-68" value="N" style="text;html=1;align=center;verticalAlign=middle;resizable=0;points=[];autosize=1;strokeColor=none;fillColor=none;" vertex="1" parent="1">
          <mxGeometry x="510" y="470" width="30" height="30" as="geometry" />
        </mxCell>
        <mxCell id="KvOZbwkdPJS79Aq6iWJq-69" value="Username" style="ellipse;whiteSpace=wrap;html=1;align=center;fontStyle=4;" vertex="1" parent="1">
          <mxGeometry x="-190" y="-160" width="100" height="40" as="geometry" />
        </mxCell>
        <mxCell id="KvOZbwkdPJS79Aq6iWJq-70" value="Name" style="ellipse;whiteSpace=wrap;html=1;align=center;" vertex="1" parent="1">
          <mxGeometry x="-70" y="-160" width="100" height="40" as="geometry" />
        </mxCell>
        <mxCell id="KvOZbwkdPJS79Aq6iWJq-71" value="Password" style="ellipse;whiteSpace=wrap;html=1;align=center;" vertex="1" parent="1">
          <mxGeometry x="40" y="-160" width="100" height="40" as="geometry" />
        </mxCell>
        <mxCell id="KvOZbwkdPJS79Aq6iWJq-72" value="Email" style="ellipse;whiteSpace=wrap;html=1;align=center;" vertex="1" parent="1">
          <mxGeometry x="150" y="-160" width="100" height="40" as="geometry" />
        </mxCell>
        <mxCell id="KvOZbwkdPJS79Aq6iWJq-73" value="" style="endArrow=none;html=1;rounded=0;" edge="1" parent="1" source="KvOZbwkdPJS79Aq6iWJq-69" target="EBscJ2AW3vFYVEZbXSV--1">
          <mxGeometry width="50" height="50" relative="1" as="geometry">
            <mxPoint x="-80" y="380" as="sourcePoint" />
            <mxPoint x="-30" y="330" as="targetPoint" />
          </mxGeometry>
        </mxCell>
        <mxCell id="KvOZbwkdPJS79Aq6iWJq-74" value="" style="endArrow=none;html=1;rounded=0;" edge="1" parent="1" source="KvOZbwkdPJS79Aq6iWJq-70" target="EBscJ2AW3vFYVEZbXSV--1">
          <mxGeometry width="50" height="50" relative="1" as="geometry">
            <mxPoint x="-65" y="-115" as="sourcePoint" />
            <mxPoint x="28" y="-70" as="targetPoint" />
          </mxGeometry>
        </mxCell>
        <mxCell id="KvOZbwkdPJS79Aq6iWJq-75" value="" style="endArrow=none;html=1;rounded=0;" edge="1" parent="1" source="KvOZbwkdPJS79Aq6iWJq-71" target="EBscJ2AW3vFYVEZbXSV--1">
          <mxGeometry width="50" height="50" relative="1" as="geometry">
            <mxPoint x="-55" y="-105" as="sourcePoint" />
            <mxPoint x="38" y="-60" as="targetPoint" />
          </mxGeometry>
        </mxCell>
        <mxCell id="KvOZbwkdPJS79Aq6iWJq-76" value="" style="endArrow=none;html=1;rounded=0;" edge="1" parent="1" source="KvOZbwkdPJS79Aq6iWJq-72" target="EBscJ2AW3vFYVEZbXSV--1">
          <mxGeometry width="50" height="50" relative="1" as="geometry">
            <mxPoint x="-45" y="-95" as="sourcePoint" />
            <mxPoint x="48" y="-50" as="targetPoint" />
          </mxGeometry>
        </mxCell>
        <mxCell id="KvOZbwkdPJS79Aq6iWJq-77" value="AccountType" style="ellipse;whiteSpace=wrap;html=1;align=center;" vertex="1" parent="1">
          <mxGeometry x="260" y="-160" width="100" height="40" as="geometry" />
        </mxCell>
        <mxCell id="KvOZbwkdPJS79Aq6iWJq-78" value="" style="endArrow=none;html=1;rounded=0;" edge="1" parent="1" source="KvOZbwkdPJS79Aq6iWJq-77" target="EBscJ2AW3vFYVEZbXSV--1">
          <mxGeometry width="50" height="50" relative="1" as="geometry">
            <mxPoint x="80" y="-95" as="sourcePoint" />
            <mxPoint x="232" y="-80" as="targetPoint" />
          </mxGeometry>
        </mxCell>
        <mxCell id="KvOZbwkdPJS79Aq6iWJq-79" value="Budget" style="ellipse;whiteSpace=wrap;html=1;align=center;" vertex="1" parent="1">
          <mxGeometry x="610" y="170" width="100" height="40" as="geometry" />
        </mxCell>
        <mxCell id="KvOZbwkdPJS79Aq6iWJq-80" value="" style="endArrow=none;html=1;rounded=0;" edge="1" parent="1" source="KvOZbwkdPJS79Aq6iWJq-79" target="KvOZbwkdPJS79Aq6iWJq-19">
          <mxGeometry width="50" height="50" relative="1" as="geometry">
            <mxPoint x="520" y="205" as="sourcePoint" />
            <mxPoint x="550" y="224" as="targetPoint" />
          </mxGeometry>
        </mxCell>
        <mxCell id="KvOZbwkdPJS79Aq6iWJq-81" value="CompanyName" style="ellipse;whiteSpace=wrap;html=1;align=center;" vertex="1" parent="1">
          <mxGeometry x="210" y="240" width="100" height="40" as="geometry" />
        </mxCell>
        <mxCell id="KvOZbwkdPJS79Aq6iWJq-82" value="" style="endArrow=none;html=1;rounded=0;" edge="1" parent="1" source="KvOZbwkdPJS79Aq6iWJq-81" target="EBscJ2AW3vFYVEZbXSV--4">
          <mxGeometry width="50" height="50" relative="1" as="geometry">
            <mxPoint x="140" y="305" as="sourcePoint" />
            <mxPoint x="166" y="340" as="targetPoint" />
          </mxGeometry>
        </mxCell>
        <mxCell id="KvOZbwkdPJS79Aq6iWJq-83" value="EmployeeType" style="ellipse;whiteSpace=wrap;html=1;align=center;" vertex="1" parent="1">
          <mxGeometry x="-140" y="240" width="100" height="40" as="geometry" />
        </mxCell>
        <mxCell id="KvOZbwkdPJS79Aq6iWJq-84" value="" style="endArrow=none;html=1;rounded=0;" edge="1" parent="1" source="KvOZbwkdPJS79Aq6iWJq-83" target="KvOZbwkdPJS79Aq6iWJq-11">
          <mxGeometry width="50" height="50" relative="1" as="geometry">
            <mxPoint x="220" y="270" as="sourcePoint" />
            <mxPoint x="150" y="270" as="targetPoint" />
          </mxGeometry>
        </mxCell>
        <mxCell id="KvOZbwkdPJS79Aq6iWJq-90" value="Location" style="ellipse;whiteSpace=wrap;html=1;align=center;" vertex="1" parent="1">
          <mxGeometry x="-630" y="700" width="100" height="40" as="geometry" />
        </mxCell>
        <mxCell id="KvOZbwkdPJS79Aq6iWJq-93" value="Capacity" style="ellipse;whiteSpace=wrap;html=1;align=center;" vertex="1" parent="1">
          <mxGeometry x="-480" y="710" width="100" height="40" as="geometry" />
        </mxCell>
        <mxCell id="KvOZbwkdPJS79Aq6iWJq-94" value="WarehouseID" style="ellipse;whiteSpace=wrap;html=1;align=center;fontStyle=4;" vertex="1" parent="1">
          <mxGeometry x="-630" y="610" width="100" height="40" as="geometry" />
        </mxCell>
        <mxCell id="KvOZbwkdPJS79Aq6iWJq-95" value="" style="endArrow=none;html=1;rounded=0;" edge="1" parent="1" source="KvOZbwkdPJS79Aq6iWJq-94" target="EBscJ2AW3vFYVEZbXSV--5">
          <mxGeometry width="50" height="50" relative="1" as="geometry">
            <mxPoint x="-180" y="550" as="sourcePoint" />
            <mxPoint x="-130" y="500" as="targetPoint" />
          </mxGeometry>
        </mxCell>
        <mxCell id="KvOZbwkdPJS79Aq6iWJq-96" value="" style="endArrow=none;html=1;rounded=0;" edge="1" parent="1" source="KvOZbwkdPJS79Aq6iWJq-90" target="EBscJ2AW3vFYVEZbXSV--5">
          <mxGeometry width="50" height="50" relative="1" as="geometry">
            <mxPoint x="-521" y="643" as="sourcePoint" />
            <mxPoint x="-470" y="647" as="targetPoint" />
          </mxGeometry>
        </mxCell>
        <mxCell id="KvOZbwkdPJS79Aq6iWJq-97" value="" style="endArrow=none;html=1;rounded=0;" edge="1" parent="1" source="KvOZbwkdPJS79Aq6iWJq-93" target="EBscJ2AW3vFYVEZbXSV--5">
          <mxGeometry width="50" height="50" relative="1" as="geometry">
            <mxPoint x="-540" y="714" as="sourcePoint" />
            <mxPoint x="-457" y="670" as="targetPoint" />
          </mxGeometry>
        </mxCell>
        <mxCell id="KvOZbwkdPJS79Aq6iWJq-98" value="Quantity" style="ellipse;whiteSpace=wrap;html=1;align=center;" vertex="1" parent="1">
          <mxGeometry x="-221" y="710" width="100" height="40" as="geometry" />
        </mxCell>
        <mxCell id="KvOZbwkdPJS79Aq6iWJq-99" value="ProductID" style="ellipse;whiteSpace=wrap;html=1;align=center;fontStyle=4;" vertex="1" parent="1">
          <mxGeometry x="75" y="730" width="100" height="40" as="geometry" />
        </mxCell>
        <mxCell id="KvOZbwkdPJS79Aq6iWJq-100" value="Price" style="ellipse;whiteSpace=wrap;html=1;align=center;" vertex="1" parent="1">
          <mxGeometry x="175" y="590" width="100" height="40" as="geometry" />
        </mxCell>
        <mxCell id="KvOZbwkdPJS79Aq6iWJq-101" value="Name" style="ellipse;whiteSpace=wrap;html=1;align=center;" vertex="1" parent="1">
          <mxGeometry x="190" y="660" width="100" height="40" as="geometry" />
        </mxCell>
        <mxCell id="KvOZbwkdPJS79Aq6iWJq-102" value="Size" style="ellipse;whiteSpace=wrap;html=1;align=center;" vertex="1" parent="1">
          <mxGeometry x="-36" y="720" width="100" height="40" as="geometry" />
        </mxCell>
        <mxCell id="KvOZbwkdPJS79Aq6iWJq-103" value="" style="endArrow=none;html=1;rounded=0;" edge="1" parent="1" source="KvOZbwkdPJS79Aq6iWJq-98" target="KvOZbwkdPJS79Aq6iWJq-8">
          <mxGeometry width="50" height="50" relative="1" as="geometry">
            <mxPoint x="-180" y="640" as="sourcePoint" />
            <mxPoint x="-130" y="590" as="targetPoint" />
          </mxGeometry>
        </mxCell>
        <mxCell id="KvOZbwkdPJS79Aq6iWJq-104" value="" style="endArrow=none;html=1;rounded=0;" edge="1" parent="1" source="KvOZbwkdPJS79Aq6iWJq-102" target="EBscJ2AW3vFYVEZbXSV--3">
          <mxGeometry width="50" height="50" relative="1" as="geometry">
            <mxPoint x="11" y="694" as="sourcePoint" />
            <mxPoint x="60" y="670" as="targetPoint" />
          </mxGeometry>
        </mxCell>
        <mxCell id="KvOZbwkdPJS79Aq6iWJq-105" value="" style="endArrow=none;html=1;rounded=0;" edge="1" parent="1" source="KvOZbwkdPJS79Aq6iWJq-99" target="EBscJ2AW3vFYVEZbXSV--3">
          <mxGeometry width="50" height="50" relative="1" as="geometry">
            <mxPoint x="33" y="751" as="sourcePoint" />
            <mxPoint x="87" y="670" as="targetPoint" />
          </mxGeometry>
        </mxCell>
        <mxCell id="KvOZbwkdPJS79Aq6iWJq-106" value="" style="endArrow=none;html=1;rounded=0;" edge="1" parent="1" source="KvOZbwkdPJS79Aq6iWJq-101" target="EBscJ2AW3vFYVEZbXSV--3">
          <mxGeometry width="50" height="50" relative="1" as="geometry">
            <mxPoint x="129" y="740" as="sourcePoint" />
            <mxPoint x="106" y="670" as="targetPoint" />
          </mxGeometry>
        </mxCell>
        <mxCell id="KvOZbwkdPJS79Aq6iWJq-107" value="" style="endArrow=none;html=1;rounded=0;" edge="1" parent="1" source="KvOZbwkdPJS79Aq6iWJq-100" target="EBscJ2AW3vFYVEZbXSV--3">
          <mxGeometry width="50" height="50" relative="1" as="geometry">
            <mxPoint x="208" y="679" as="sourcePoint" />
            <mxPoint x="150" y="663" as="targetPoint" />
          </mxGeometry>
        </mxCell>
        <mxCell id="KvOZbwkdPJS79Aq6iWJq-108" value="OrderLine" style="shape=ext;margin=3;double=1;whiteSpace=wrap;html=1;align=center;" vertex="1" parent="1">
          <mxGeometry x="460" y="970" width="100" height="40" as="geometry" />
        </mxCell>
        <mxCell id="KvOZbwkdPJS79Aq6iWJq-109" value="Consists of" style="shape=rhombus;double=1;perimeter=rhombusPerimeter;whiteSpace=wrap;html=1;align=center;" vertex="1" parent="1">
          <mxGeometry x="450" y="780" width="120" height="60" as="geometry" />
        </mxCell>
        <mxCell id="KvOZbwkdPJS79Aq6iWJq-110" value="&lt;span style=&quot;border-bottom: 1px dotted&quot;&gt;LineNumber&lt;/span&gt;" style="ellipse;whiteSpace=wrap;html=1;align=center;" vertex="1" parent="1">
          <mxGeometry x="425" y="1030" width="100" height="40" as="geometry" />
        </mxCell>
        <mxCell id="KvOZbwkdPJS79Aq6iWJq-111" value="" style="endArrow=none;html=1;rounded=0;" edge="1" parent="1" source="KvOZbwkdPJS79Aq6iWJq-110" target="KvOZbwkdPJS79Aq6iWJq-108">
          <mxGeometry width="50" height="50" relative="1" as="geometry">
            <mxPoint x="125" y="670" as="sourcePoint" />
            <mxPoint x="277" y="792" as="targetPoint" />
          </mxGeometry>
        </mxCell>
        <mxCell id="KvOZbwkdPJS79Aq6iWJq-112" value="LineTotal" style="ellipse;whiteSpace=wrap;html=1;align=center;" vertex="1" parent="1">
          <mxGeometry x="560" y="1030" width="100" height="40" as="geometry" />
        </mxCell>
        <mxCell id="KvOZbwkdPJS79Aq6iWJq-113" value="" style="endArrow=none;html=1;rounded=0;" edge="1" parent="1" source="KvOZbwkdPJS79Aq6iWJq-112" target="KvOZbwkdPJS79Aq6iWJq-108">
          <mxGeometry width="50" height="50" relative="1" as="geometry">
            <mxPoint x="591" y="1024" as="sourcePoint" />
            <mxPoint x="657" y="990" as="targetPoint" />
          </mxGeometry>
        </mxCell>
        <mxCell id="KvOZbwkdPJS79Aq6iWJq-118" value="Quantity" style="ellipse;whiteSpace=wrap;html=1;align=center;" vertex="1" parent="1">
          <mxGeometry x="140" y="840" width="100" height="40" as="geometry" />
        </mxCell>
        <mxCell id="KvOZbwkdPJS79Aq6iWJq-119" value="" style="endArrow=none;html=1;rounded=0;" edge="1" parent="1" source="KvOZbwkdPJS79Aq6iWJq-23" target="KvOZbwkdPJS79Aq6iWJq-118">
          <mxGeometry width="50" height="50" relative="1" as="geometry">
            <mxPoint x="120" y="790" as="sourcePoint" />
            <mxPoint x="170" y="740" as="targetPoint" />
          </mxGeometry>
        </mxCell>
        <mxCell id="KvOZbwkdPJS79Aq6iWJq-120" value="OrderID" style="ellipse;whiteSpace=wrap;html=1;align=center;fontStyle=4;" vertex="1" parent="1">
          <mxGeometry x="610" y="700" width="100" height="40" as="geometry" />
        </mxCell>
        <mxCell id="KvOZbwkdPJS79Aq6iWJq-121" value="" style="endArrow=none;html=1;rounded=0;" edge="1" parent="1" source="KvOZbwkdPJS79Aq6iWJq-120" target="EBscJ2AW3vFYVEZbXSV--6">
          <mxGeometry width="50" height="50" relative="1" as="geometry">
            <mxPoint x="568" y="771" as="sourcePoint" />
            <mxPoint x="631" y="680" as="targetPoint" />
          </mxGeometry>
        </mxCell>
        <mxCell id="KvOZbwkdPJS79Aq6iWJq-122" value="OrderDate" style="ellipse;whiteSpace=wrap;html=1;align=center;" vertex="1" parent="1">
          <mxGeometry x="650" y="640" width="100" height="40" as="geometry" />
        </mxCell>
        <mxCell id="KvOZbwkdPJS79Aq6iWJq-123" value="" style="endArrow=none;html=1;rounded=0;" edge="1" parent="1" source="KvOZbwkdPJS79Aq6iWJq-122" target="EBscJ2AW3vFYVEZbXSV--6">
          <mxGeometry width="50" height="50" relative="1" as="geometry">
            <mxPoint x="629" y="727" as="sourcePoint" />
            <mxPoint x="640" y="640" as="targetPoint" />
          </mxGeometry>
        </mxCell>
        <mxCell id="KvOZbwkdPJS79Aq6iWJq-124" value="TotalPrice" style="ellipse;whiteSpace=wrap;html=1;align=center;" vertex="1" parent="1">
          <mxGeometry x="620" y="570" width="100" height="40" as="geometry" />
        </mxCell>
        <mxCell id="KvOZbwkdPJS79Aq6iWJq-125" value="" style="endArrow=none;html=1;rounded=0;" edge="1" parent="1" source="KvOZbwkdPJS79Aq6iWJq-124" target="EBscJ2AW3vFYVEZbXSV--6">
          <mxGeometry width="50" height="50" relative="1" as="geometry">
            <mxPoint x="599" y="637" as="sourcePoint" />
            <mxPoint x="610" y="550" as="targetPoint" />
          </mxGeometry>
        </mxCell>
        <mxCell id="VNYMSGWV-zVmcTVDoXyZ-1" value="Administrator" style="rounded=1;arcSize=10;whiteSpace=wrap;html=1;align=center;" vertex="1" parent="1">
          <mxGeometry x="-480" y="240" width="100" height="40" as="geometry" />
        </mxCell>
        <mxCell id="VNYMSGWV-zVmcTVDoXyZ-2" value="" style="endArrow=none;html=1;rounded=0;" edge="1" parent="1" source="VNYMSGWV-zVmcTVDoXyZ-1" target="KvOZbwkdPJS79Aq6iWJq-11">
          <mxGeometry width="50" height="50" relative="1" as="geometry">
            <mxPoint x="-40" y="550" as="sourcePoint" />
            <mxPoint x="10" y="500" as="targetPoint" />
          </mxGeometry>
        </mxCell>
        <mxCell id="VNYMSGWV-zVmcTVDoXyZ-5" value="EmployeeType=&quot;admin&quot;" style="text;html=1;align=center;verticalAlign=middle;resizable=0;points=[];autosize=1;strokeColor=none;fillColor=none;" vertex="1" parent="1">
          <mxGeometry x="-404" y="280" width="150" height="30" as="geometry" />
        </mxCell>
        <mxCell id="VNYMSGWV-zVmcTVDoXyZ-6" value="" style="verticalLabelPosition=bottom;verticalAlign=top;html=1;shape=mxgraph.basic.arc;startAngle=0.3;endAngle=0.8678172379377097;rotation=60;" vertex="1" parent="1">
          <mxGeometry x="-340" y="245" width="30" height="30" as="geometry" />
        </mxCell>
        <mxCell id="VNYMSGWV-zVmcTVDoXyZ-8" value="" style="verticalLabelPosition=bottom;verticalAlign=top;html=1;shape=mxgraph.basic.arc;startAngle=0.3;endAngle=0.8678172379377097;rotation=20;" vertex="1" parent="1">
          <mxGeometry x="-121" y="166" width="30" height="30" as="geometry" />
        </mxCell>
        <mxCell id="VNYMSGWV-zVmcTVDoXyZ-9" value="" style="verticalLabelPosition=bottom;verticalAlign=top;html=1;shape=mxgraph.basic.arc;startAngle=0.3446588757781409;endAngle=0.9093909914689088;rotation=-50;" vertex="1" parent="1">
          <mxGeometry x="64" y="166" width="30" height="30" as="geometry" />
        </mxCell>
        <mxCell id="VNYMSGWV-zVmcTVDoXyZ-10" value="" style="verticalLabelPosition=bottom;verticalAlign=top;html=1;shape=mxgraph.basic.arc;startAngle=0.3446588757781409;endAngle=0.9093909914689088;rotation=-95;" vertex="1" parent="1">
          <mxGeometry x="210" y="120" width="30" height="30" as="geometry" />
        </mxCell>
        <mxCell id="VNYMSGWV-zVmcTVDoXyZ-14" value="" style="endArrow=none;html=1;rounded=0;" edge="1" parent="1" source="VNYMSGWV-zVmcTVDoXyZ-39" target="KvOZbwkdPJS79Aq6iWJq-11">
          <mxGeometry width="50" height="50" relative="1" as="geometry">
            <mxPoint x="-188.0344827586207" y="361.51724137931024" as="sourcePoint" />
            <mxPoint x="-300" y="370" as="targetPoint" />
          </mxGeometry>
        </mxCell>
        <mxCell id="VNYMSGWV-zVmcTVDoXyZ-16" value="" style="shape=link;html=1;rounded=0;" edge="1" parent="1" source="VNYMSGWV-zVmcTVDoXyZ-39" target="VNYMSGWV-zVmcTVDoXyZ-36">
          <mxGeometry relative="1" as="geometry">
            <mxPoint x="-161.1454545454544" y="408.0727272727272" as="sourcePoint" />
            <mxPoint x="-109.78260869565202" y="460" as="targetPoint" />
          </mxGeometry>
        </mxCell>
        <mxCell id="VNYMSGWV-zVmcTVDoXyZ-20" value="" style="shape=link;html=1;rounded=0;" edge="1" parent="1" source="VNYMSGWV-zVmcTVDoXyZ-40" target="VNYMSGWV-zVmcTVDoXyZ-36">
          <mxGeometry relative="1" as="geometry">
            <mxPoint x="-30" y="540" as="sourcePoint" />
            <mxPoint x="-70" y="500" as="targetPoint" />
          </mxGeometry>
        </mxCell>
        <mxCell id="VNYMSGWV-zVmcTVDoXyZ-21" value="" style="endArrow=none;html=1;rounded=0;" edge="1" parent="1" source="VNYMSGWV-zVmcTVDoXyZ-40" target="EBscJ2AW3vFYVEZbXSV--3">
          <mxGeometry width="50" height="50" relative="1" as="geometry">
            <mxPoint x="13.076923076922867" y="578.4615384615386" as="sourcePoint" />
            <mxPoint x="-300" y="370" as="targetPoint" />
          </mxGeometry>
        </mxCell>
        <mxCell id="VNYMSGWV-zVmcTVDoXyZ-22" value="Moves from" style="shape=rhombus;perimeter=rhombusPerimeter;whiteSpace=wrap;html=1;align=center;" vertex="1" parent="1">
          <mxGeometry x="-330" y="455" width="120" height="60" as="geometry" />
        </mxCell>
        <mxCell id="VNYMSGWV-zVmcTVDoXyZ-23" value="Moves to" style="shape=rhombus;perimeter=rhombusPerimeter;whiteSpace=wrap;html=1;align=center;" vertex="1" parent="1">
          <mxGeometry x="-295" y="533" width="120" height="60" as="geometry" />
        </mxCell>
        <mxCell id="VNYMSGWV-zVmcTVDoXyZ-24" value="" style="shape=link;html=1;rounded=0;" edge="1" parent="1" source="VNYMSGWV-zVmcTVDoXyZ-23" target="VNYMSGWV-zVmcTVDoXyZ-36">
          <mxGeometry relative="1" as="geometry">
            <mxPoint x="-20" y="550" as="sourcePoint" />
            <mxPoint x="-124.93975903614455" y="500" as="targetPoint" />
          </mxGeometry>
        </mxCell>
        <mxCell id="VNYMSGWV-zVmcTVDoXyZ-25" value="" style="shape=link;html=1;rounded=0;" edge="1" parent="1" source="VNYMSGWV-zVmcTVDoXyZ-22" target="VNYMSGWV-zVmcTVDoXyZ-36">
          <mxGeometry relative="1" as="geometry">
            <mxPoint x="-10" y="560" as="sourcePoint" />
            <mxPoint x="-140" y="481.3888888888887" as="targetPoint" />
          </mxGeometry>
        </mxCell>
        <mxCell id="VNYMSGWV-zVmcTVDoXyZ-26" value="" style="endArrow=none;html=1;rounded=0;" edge="1" parent="1" source="VNYMSGWV-zVmcTVDoXyZ-22" target="EBscJ2AW3vFYVEZbXSV--5">
          <mxGeometry width="50" height="50" relative="1" as="geometry">
            <mxPoint x="-350" y="420" as="sourcePoint" />
            <mxPoint x="-300" y="370" as="targetPoint" />
          </mxGeometry>
        </mxCell>
        <mxCell id="VNYMSGWV-zVmcTVDoXyZ-27" value="" style="endArrow=none;html=1;rounded=0;" edge="1" parent="1" source="VNYMSGWV-zVmcTVDoXyZ-23" target="EBscJ2AW3vFYVEZbXSV--5">
          <mxGeometry width="50" height="50" relative="1" as="geometry">
            <mxPoint x="-280" y="515" as="sourcePoint" />
            <mxPoint x="-399" y="630" as="targetPoint" />
          </mxGeometry>
        </mxCell>
        <mxCell id="VNYMSGWV-zVmcTVDoXyZ-28" value="1" style="text;html=1;align=center;verticalAlign=middle;resizable=0;points=[];autosize=1;strokeColor=none;fillColor=none;rotation=0;" vertex="1" parent="1">
          <mxGeometry x="-196" y="328" width="30" height="30" as="geometry" />
        </mxCell>
        <mxCell id="VNYMSGWV-zVmcTVDoXyZ-29" value="N" style="text;html=1;align=center;verticalAlign=middle;resizable=0;points=[];autosize=1;strokeColor=none;fillColor=none;rotation=0;" vertex="1" parent="1">
          <mxGeometry x="-155" y="400" width="30" height="30" as="geometry" />
        </mxCell>
        <mxCell id="VNYMSGWV-zVmcTVDoXyZ-30" value="1" style="text;html=1;align=center;verticalAlign=middle;resizable=0;points=[];autosize=1;strokeColor=none;fillColor=none;rotation=0;" vertex="1" parent="1">
          <mxGeometry x="20" y="570" width="30" height="30" as="geometry" />
        </mxCell>
        <mxCell id="VNYMSGWV-zVmcTVDoXyZ-31" value="N" style="text;html=1;align=center;verticalAlign=middle;resizable=0;points=[];autosize=1;strokeColor=none;fillColor=none;rotation=0;" vertex="1" parent="1">
          <mxGeometry x="-40" y="512" width="30" height="30" as="geometry" />
        </mxCell>
        <mxCell id="VNYMSGWV-zVmcTVDoXyZ-32" value="1" style="text;html=1;align=center;verticalAlign=middle;resizable=0;points=[];autosize=1;strokeColor=none;fillColor=none;rotation=0;" vertex="1" parent="1">
          <mxGeometry x="-330" y="490" width="30" height="30" as="geometry" />
        </mxCell>
        <mxCell id="VNYMSGWV-zVmcTVDoXyZ-33" value="1" style="text;html=1;align=center;verticalAlign=middle;resizable=0;points=[];autosize=1;strokeColor=none;fillColor=none;rotation=0;" vertex="1" parent="1">
          <mxGeometry x="-310" y="560" width="30" height="30" as="geometry" />
        </mxCell>
        <mxCell id="VNYMSGWV-zVmcTVDoXyZ-34" value="N" style="text;html=1;align=center;verticalAlign=middle;resizable=0;points=[];autosize=1;strokeColor=none;fillColor=none;rotation=0;" vertex="1" parent="1">
          <mxGeometry x="-220" y="455" width="30" height="30" as="geometry" />
        </mxCell>
        <mxCell id="VNYMSGWV-zVmcTVDoXyZ-35" value="N" style="text;html=1;align=center;verticalAlign=middle;resizable=0;points=[];autosize=1;strokeColor=none;fillColor=none;rotation=0;" vertex="1" parent="1">
          <mxGeometry x="-222" y="519" width="30" height="30" as="geometry" />
        </mxCell>
        <mxCell id="VNYMSGWV-zVmcTVDoXyZ-36" value="Transfer" style="shape=ext;margin=3;double=1;whiteSpace=wrap;html=1;align=center;" vertex="1" parent="1">
          <mxGeometry x="-140" y="460" width="100" height="40" as="geometry" />
        </mxCell>
        <mxCell id="VNYMSGWV-zVmcTVDoXyZ-39" value="Starts" style="shape=rhombus;double=1;perimeter=rhombusPerimeter;whiteSpace=wrap;html=1;align=center;" vertex="1" parent="1">
          <mxGeometry x="-240" y="358" width="120" height="60" as="geometry" />
        </mxCell>
        <mxCell id="VNYMSGWV-zVmcTVDoXyZ-40" value="Relocates" style="shape=rhombus;double=1;perimeter=rhombusPerimeter;whiteSpace=wrap;html=1;align=center;" vertex="1" parent="1">
          <mxGeometry x="-70" y="533" width="120" height="60" as="geometry" />
        </mxCell>
        <mxCell id="VNYMSGWV-zVmcTVDoXyZ-42" value="&lt;span style=&quot;border-bottom: 1px dotted&quot;&gt;Date_Time&lt;/span&gt;" style="ellipse;whiteSpace=wrap;html=1;align=center;" vertex="1" parent="1">
          <mxGeometry x="-75" y="395" width="100" height="40" as="geometry" />
        </mxCell>
        <mxCell id="VNYMSGWV-zVmcTVDoXyZ-43" value="" style="endArrow=none;html=1;rounded=0;" edge="1" parent="1" source="VNYMSGWV-zVmcTVDoXyZ-42" target="VNYMSGWV-zVmcTVDoXyZ-36">
          <mxGeometry width="50" height="50" relative="1" as="geometry">
            <mxPoint x="-280" y="515" as="sourcePoint" />
            <mxPoint x="-399" y="630" as="targetPoint" />
          </mxGeometry>
        </mxCell>
        <mxCell id="MdeBxt7C7ASHeWCChRpj-5" value="Quantity" style="ellipse;whiteSpace=wrap;html=1;align=center;" vertex="1" parent="1">
          <mxGeometry x="-170" y="565" width="100" height="40" as="geometry" />
        </mxCell>
        <mxCell id="MdeBxt7C7ASHeWCChRpj-6" value="" style="endArrow=none;html=1;rounded=0;" edge="1" parent="1" source="MdeBxt7C7ASHeWCChRpj-5" target="VNYMSGWV-zVmcTVDoXyZ-40">
          <mxGeometry width="50" height="50" relative="1" as="geometry">
            <mxPoint x="-60" y="320" as="sourcePoint" />
            <mxPoint x="-10" y="270" as="targetPoint" />
          </mxGeometry>
        </mxCell>
        <mxCell id="QKtpzTdT9j-MD3mftZz9-1" value="Quantity" style="ellipse;whiteSpace=wrap;html=1;align=center;" vertex="1" parent="1">
          <mxGeometry x="169.2" y="384.6" width="100" height="40" as="geometry" />
        </mxCell>
        <mxCell id="QKtpzTdT9j-MD3mftZz9-2" value="" style="endArrow=none;html=1;rounded=0;" edge="1" parent="1" source="QKtpzTdT9j-MD3mftZz9-1" target="KvOZbwkdPJS79Aq6iWJq-5">
          <mxGeometry width="50" height="50" relative="1" as="geometry">
            <mxPoint x="202.2" y="473.6" as="sourcePoint" />
            <mxPoint x="200" y="480" as="targetPoint" />
          </mxGeometry>
        </mxCell>
        <mxCell id="QKtpzTdT9j-MD3mftZz9-8" value="LastUpdated" style="ellipse;whiteSpace=wrap;html=1;align=center;" vertex="1" parent="1">
          <mxGeometry x="140" y="465" width="100" height="40" as="geometry" />
        </mxCell>
        <mxCell id="QKtpzTdT9j-MD3mftZz9-9" value="" style="endArrow=none;html=1;rounded=0;" edge="1" parent="1" source="QKtpzTdT9j-MD3mftZz9-8" target="KvOZbwkdPJS79Aq6iWJq-5">
          <mxGeometry width="50" height="50" relative="1" as="geometry">
            <mxPoint x="189" y="427" as="sourcePoint" />
            <mxPoint x="138" y="442" as="targetPoint" />
          </mxGeometry>
        </mxCell>
      </root>
    </mxGraphModel>
  </diagram>
</mxfile>
